<svg width="56" height="56" viewBox="0 0 56 56" fill="none" xmlns="http://www.w3.org/2000/svg">
<rect width="56" height="56" fill="#E92962"/>
<path d="M34.0703 38H22.0938V35.4805L26.3945 31.1328C27.668 29.8281 28.5 28.9258 28.8906 28.4258C29.2812 27.918 29.5625 27.4492 29.7344 27.0195C29.9062 26.5898 29.9922 26.1445 29.9922 25.6836C29.9922 24.9961 29.8008 24.4844 29.418 24.1484C29.043 23.8125 28.5391 23.6445 27.9062 23.6445C27.2422 23.6445 26.5977 23.7969 25.9727 24.1016C25.3477 24.4062 24.6953 24.8398 24.0156 25.4023L22.0469 23.0703C22.8906 22.3516 23.5898 21.8438 24.1445 21.5469C24.6992 21.25 25.3047 21.0234 25.9609 20.8672C26.6172 20.7031 27.3516 20.6211 28.1641 20.6211C29.2344 20.6211 30.1797 20.8164 31 21.207C31.8203 21.5977 32.457 22.1445 32.9102 22.8477C33.3633 23.5508 33.5898 24.3555 33.5898 25.2617C33.5898 26.0508 33.4492 26.793 33.168 27.4883C32.8945 28.1758 32.4648 28.8828 31.8789 29.6094C31.3008 30.3359 30.2773 31.3711 28.8086 32.7148L26.6055 34.7891V34.9531H34.0703V38Z" fill="white"/>
</svg>
