<svg width="56" height="56" viewBox="0 0 56 56" fill="none" xmlns="http://www.w3.org/2000/svg">
<rect width="56" height="56" fill="#E92962"/>
<path d="M33.4023 24.6992C33.4023 25.7695 33.0781 26.6797 32.4297 27.4297C31.7812 28.1797 30.8711 28.6953 29.6992 28.9766V29.0469C31.082 29.2188 32.1289 29.6406 32.8398 30.3125C33.5508 30.9766 33.9062 31.875 33.9062 33.0078C33.9062 34.6562 33.3086 35.9414 32.1133 36.8633C30.918 37.7773 29.2109 38.2344 26.9922 38.2344C25.1328 38.2344 23.4844 37.9258 22.0469 37.3086V34.2266C22.7109 34.5625 23.4414 34.8359 24.2383 35.0469C25.0352 35.2578 25.8242 35.3633 26.6055 35.3633C27.8008 35.3633 28.6836 35.1602 29.2539 34.7539C29.8242 34.3477 30.1094 33.6953 30.1094 32.7969C30.1094 31.9922 29.7812 31.4219 29.125 31.0859C28.4688 30.75 27.4219 30.582 25.9844 30.582H24.6836V27.8047H26.0078C27.3359 27.8047 28.3047 27.6328 28.9141 27.2891C29.5312 26.9375 29.8398 26.3398 29.8398 25.4961C29.8398 24.1992 29.0273 23.5508 27.4023 23.5508C26.8398 23.5508 26.2656 23.6445 25.6797 23.832C25.1016 24.0195 24.457 24.3438 23.7461 24.8047L22.0703 22.3086C23.6328 21.1836 25.4961 20.6211 27.6602 20.6211C29.4336 20.6211 30.832 20.9805 31.8555 21.6992C32.8867 22.418 33.4023 23.418 33.4023 24.6992Z" fill="white"/>
</svg>
